<svg viewBox="0 0 400 300" xmlns="http://www.w3.org/2000/svg" role="img" aria-labelledby="t3">
<title id="t3">Ilustración: tablero de juego con casillas de colores inspirado en un recorrido tipo Monopoly</title>
<rect width="400" height="300" fill="#F1E4D8"/>
<rect x="40" y="40" width="320" height="220" rx="10" fill="#FCFAF7" stroke="#B98B6E" stroke-width="2.5"/>
<g stroke="#B98B6E" stroke-width="1.4" opacity="0.6">
  <line x1="40" y1="80" x2="360" y2="80"/>
  <line x1="40" y1="220" x2="360" y2="220"/>
  <line x1="80" y1="40" x2="80" y2="260"/>
  <line x1="320" y1="40" x2="320" y2="260"/>
</g>
<g>
  <rect x="40" y="40" width="40" height="40" fill="#4B6157" opacity="0.6"/>
  <rect x="120" y="40" width="40" height="40" fill="#8E7F98" opacity="0.5"/>
  <rect x="200" y="40" width="40" height="40" fill="#B98B6E" opacity="0.55"/>
  <rect x="280" y="40" width="40" height="40" fill="#4B6157" opacity="0.35"/>
  <rect x="320" y="220" width="40" height="40" fill="#8E7F98" opacity="0.6"/>
  <rect x="40" y="220" width="40" height="40" fill="#B98B6E" opacity="0.4"/>
  <rect x="120" y="220" width="40" height="40" fill="#4B6157" opacity="0.5"/>
  <rect x="200" y="220" width="40" height="40" fill="#8E7F98" opacity="0.4"/>
</g>
<circle cx="140" cy="150" r="10" fill="#33463D"/>
<circle cx="180" cy="150" r="10" fill="#5B4F68"/>
<circle cx="220" cy="150" r="10" fill="#B98B6E"/>
<rect x="255" y="140" width="20" height="20" rx="4" fill="#FCFAF7" stroke="#33463D" stroke-width="2"/>
<circle cx="262" cy="147" r="1.6" fill="#33463D"/>
<circle cx="268" cy="153" r="1.6" fill="#33463D"/>
<circle cx="262" cy="153" r="1.6" fill="#33463D"/>
<circle cx="268" cy="147" r="1.6" fill="#33463D"/>
</svg>
